<?xml version="1.0" encoding="UTF-8"?>
<svg xmlns="http://www.w3.org/2000/svg" xmlns:xlink="http://www.w3.org/1999/xlink" width="30pt" height="30.000001pt" viewBox="0 0 30 30.000001" version="1.2">
<defs>
<clipPath id="clip1">
  <path d="M 5 0 L 29 0 L 29 29 L 5 29 Z M 5 0 "/>
</clipPath>
<clipPath id="clip2">
  <path d="M 18.632812 -6.023438 L 33.816406 8.554688 L 11.199219 32.113281 L -3.984375 17.539062 Z M 18.632812 -6.023438 "/>
</clipPath>
<clipPath id="clip3">
  <path d="M 33.882812 8.617188 L 18.699219 -5.960938 L -3.921875 17.601562 L 11.261719 32.179688 Z M 33.882812 8.617188 "/>
</clipPath>
</defs>
<g id="surface1">
<g clip-path="url(#clip1)" clip-rule="nonzero">
<g clip-path="url(#clip2)" clip-rule="nonzero">
<g clip-path="url(#clip3)" clip-rule="nonzero">
<path style=" stroke:none;fill-rule:nonzero;fill:rgb(45.098877%,45.098877%,45.098877%);fill-opacity:1;" d="M 6.496094 21.207031 C 6.308594 20.878906 4.1875 16.457031 5.535156 11.40625 C 6.8125 6.636719 10.84375 2.394531 16.113281 1.015625 C 22.28125 -0.597656 27.214844 2.480469 28.058594 3.027344 C 27.75 7.046875 26.648438 10.078125 25.804688 11.9375 C 24.398438 15.058594 21.621094 21.207031 16.46875 22.460938 C 13.222656 23.246094 11.191406 21.609375 9.28125 23.222656 C 7.273438 24.925781 7.769531 28.480469 7.542969 28.460938 C 7.359375 28.445312 7.097656 26.085938 7.882812 23.359375 C 8.027344 22.84375 8.457031 21.476562 9.683594 19.480469 C 10.769531 17.710938 11.890625 16.417969 14.050781 14.210938 C 15.574219 12.660156 17.574219 10.6875 20.027344 8.46875 C 17.160156 10.300781 15 12.074219 13.503906 13.421875 C 12.375 14.4375 11.550781 15.1875 10.636719 16.34375 C 8.804688 18.667969 7.910156 21 7.449219 22.59375 C 7.1875 22.269531 6.839844 21.804688 6.496094 21.207031 "/>
</g>
</g>
</g>
</g>
</svg>
