<?xml version="1.0" encoding="UTF-8"?>
<svg xmlns="http://www.w3.org/2000/svg" xmlns:xlink="http://www.w3.org/1999/xlink" width="30pt" height="30.000001pt" viewBox="0 0 30 30.000001" version="1.2">
<defs>
<clipPath id="clip1">
  <path d="M 4 7 L 25.886719 7 L 25.886719 28.476562 L 4 28.476562 Z M 4 7 "/>
</clipPath>
<clipPath id="clip2">
  <path d="M 15 0.894531 L 20 0.894531 L 20 7 L 15 7 Z M 15 0.894531 "/>
</clipPath>
</defs>
<g id="surface1">
<g clip-path="url(#clip1)" clip-rule="nonzero">
<path style=" stroke:none;fill-rule:nonzero;fill:rgb(100%,100%,100%);fill-opacity:1;" d="M 25.472656 20.460938 C 25.03125 20.261719 24.628906 20 24.261719 19.683594 C 23.894531 19.367188 23.578125 19 23.316406 18.589844 C 23.054688 18.179688 22.855469 17.742188 22.71875 17.273438 C 22.582031 16.804688 22.511719 16.324219 22.511719 15.835938 C 22.515625 14.945312 22.734375 14.109375 23.164062 13.332031 C 23.59375 12.558594 24.183594 11.933594 24.929688 11.464844 C 25.0625 11.375 25.144531 11.246094 25.179688 11.085938 C 25.210938 10.925781 25.179688 10.78125 25.09375 10.644531 C 24.527344 9.8125 23.808594 9.152344 22.933594 8.660156 C 22.0625 8.171875 21.128906 7.902344 20.132812 7.855469 C 18.894531 7.820312 17.714844 8.074219 16.601562 8.617188 C 16.195312 8.8125 15.773438 8.949219 15.332031 9.023438 C 14.871094 8.957031 14.433594 8.820312 14.015625 8.613281 C 13.136719 8.1875 12.207031 7.957031 11.234375 7.910156 C 10.65625 7.929688 10.089844 8.023438 9.53125 8.195312 C 8.976562 8.363281 8.453125 8.601562 7.960938 8.910156 C 7.464844 9.214844 7.019531 9.582031 6.617188 10.007812 C 6.21875 10.433594 5.878906 10.902344 5.601562 11.417969 C 3.398438 15.351562 4.777344 21.316406 7.199219 24.910156 C 8.132812 26.300781 9.542969 28.402344 11.507812 28.402344 L 11.617188 28.402344 C 12.316406 28.355469 12.980469 28.175781 13.609375 27.859375 C 14.253906 27.53125 14.933594 27.363281 15.65625 27.355469 C 16.339844 27.363281 16.988281 27.527344 17.59375 27.84375 C 18.273438 28.191406 18.992188 28.367188 19.753906 28.371094 C 21.792969 28.328125 23.027344 26.460938 24.019531 24.972656 C 24.792969 23.796875 25.386719 22.539062 25.804688 21.195312 C 25.851562 21.046875 25.84375 20.902344 25.78125 20.761719 C 25.71875 20.621094 25.613281 20.519531 25.472656 20.460938 Z M 25.472656 20.460938 "/>
</g>
<g clip-path="url(#clip2)" clip-rule="nonzero">
<path style=" stroke:none;fill-rule:nonzero;fill:rgb(100%,100%,100%);fill-opacity:1;" d="M 18.636719 4.320312 C 19.429688 3.347656 19.855469 2.230469 19.921875 0.96875 C 18.757812 1.253906 17.78125 1.851562 16.992188 2.765625 C 16.195312 3.710938 15.757812 4.804688 15.679688 6.046875 C 16.894531 5.871094 17.878906 5.296875 18.636719 4.320312 Z M 18.636719 4.320312 "/>
</g>
</g>
</svg>
